<svg width="211" height="50" viewBox="0 0 211 50" fill="none" xmlns="http://www.w3.org/2000/svg">
<path d="M208.969 49.9995C209.521 50.0164 209.983 49.5826 210 49.0306L210.275 40.0348C210.292 39.4828 209.858 39.0216 209.306 39.0047C208.754 38.9878 208.293 39.4216 208.276 39.9736L208.031 47.9699L200.035 47.725C199.483 47.7081 199.022 48.1419 199.005 48.6939C198.988 49.2459 199.422 49.7071 199.974 49.724L208.969 49.9995ZM1 49C1.77851 49.6276 1.77842 49.6278 1.77847 49.6277C1.77868 49.6274 1.77889 49.6272 1.77931 49.6266C1.78017 49.6256 1.78162 49.6238 1.78365 49.6213C1.78772 49.6163 1.79413 49.6084 1.80289 49.5977C1.82041 49.5762 1.8473 49.5434 1.8835 49.4996C1.9559 49.4121 2.06554 49.2807 2.21195 49.1083C2.50478 48.7635 2.94466 48.2549 3.52786 47.6059C4.69431 46.3078 6.43366 44.4484 8.71593 42.2147C13.2813 37.7465 20.0145 31.7852 28.6755 25.8237C46.002 13.8978 71.0005 2 101.775 2V0C70.4724 0 45.0833 12.1022 27.5415 24.1763C18.7685 30.2148 11.9474 36.2535 7.31701 40.7853C5.00142 43.0516 3.23253 44.9422 2.04022 46.2691C1.44403 46.9326 0.991893 47.4553 0.68755 47.8136C0.535376 47.9928 0.420141 48.1309 0.342312 48.225C0.303397 48.272 0.273832 48.3081 0.253676 48.3328C0.243598 48.3451 0.235873 48.3546 0.230506 48.3612C0.227823 48.3645 0.225729 48.3671 0.224227 48.369C0.223476 48.3699 0.222791 48.3708 0.222416 48.3712C0.22188 48.3719 0.221492 48.3724 1 49ZM101.775 2C132.559 2 159.179 13.9038 178.134 25.8461C187.606 31.8141 195.149 37.7823 200.322 42.2563C202.907 44.493 204.9 46.3552 206.243 47.656C206.915 48.3063 207.425 48.8162 207.765 49.1622C207.935 49.3352 208.063 49.4672 208.148 49.5554C208.19 49.5994 208.222 49.6325 208.242 49.6543C208.253 49.6651 208.26 49.6732 208.265 49.6783C208.268 49.6809 208.269 49.6828 208.27 49.6839C208.271 49.6845 208.271 49.6848 208.272 49.6851C208.272 49.6852 208.272 49.6851 209 49C209.728 48.3149 209.728 48.3144 209.727 48.3138C209.727 48.3134 209.726 48.3126 209.725 48.3117C209.724 48.3099 209.721 48.3074 209.718 48.3042C209.712 48.2977 209.703 48.2883 209.692 48.2761C209.669 48.2518 209.634 48.216 209.589 48.1692C209.5 48.0757 209.366 47.9382 209.191 47.7597C208.839 47.4026 208.318 46.8812 207.634 46.219C206.266 44.8948 204.247 43.007 201.63 40.7437C196.397 36.2177 188.774 30.1859 179.2 24.1539C160.062 12.0962 133.069 0 101.775 0V2Z" fill="#DEDEDC"/>
</svg>
