<svg width="128" height="30" viewBox="0 0 128 30" fill="none" xmlns="http://www.w3.org/2000/svg">
<path d="M127.006 29C127.559 28.9964 128.004 28.5459 128 27.9936L127.942 18.9938C127.939 18.4415 127.488 17.9967 126.936 18.0002C126.384 18.0038 125.939 18.4543 125.942 19.0066L125.994 27.0064L117.994 27.0578C117.441 27.0613 116.997 27.5119 117 28.0642C117.004 28.6165 117.454 29.0613 118.007 29.0577L127.006 29ZM1 28C1.75511 28.6556 1.75494 28.6558 1.75487 28.6559C1.75496 28.6558 1.75497 28.6558 1.75516 28.6555C1.75554 28.6551 1.75626 28.6543 1.75735 28.653C1.75952 28.6506 1.76311 28.6464 1.76812 28.6408C1.77814 28.6294 1.79382 28.6116 1.81514 28.5877C1.85777 28.5398 1.92294 28.4673 2.01034 28.3717C2.18516 28.1806 2.44891 27.8974 2.79933 27.5353C3.50023 26.811 4.54748 25.7713 5.92292 24.5213C8.67448 22.0207 12.7353 18.6819 17.9601 15.3426C28.4126 8.66196 43.4888 2 62.0465 2V0C42.9995 0 27.5525 6.83804 16.883 13.6574C11.5466 17.0681 7.39674 20.4793 4.57781 23.0412C3.16799 24.3225 2.09007 25.3922 1.3621 26.1444C0.998082 26.5206 0.721479 26.8175 0.534546 27.0219C0.441077 27.1241 0.370017 27.2031 0.32165 27.2574C0.297466 27.2846 0.278953 27.3055 0.266149 27.3201C0.259746 27.3274 0.254771 27.3331 0.251226 27.3371C0.249454 27.3392 0.24804 27.3408 0.246984 27.342C0.246456 27.3426 0.245932 27.3432 0.245668 27.3435C0.245235 27.344 0.244891 27.3444 1 28ZM62.0465 2C80.6119 2 96.6743 8.667 108.12 15.3631C113.839 18.7088 118.392 22.0543 121.513 24.5609C123.073 25.8139 124.274 26.8565 125.083 27.5835C125.487 27.947 125.793 28.2315 125.997 28.424C126.099 28.5202 126.175 28.5933 126.226 28.6418C126.251 28.6661 126.269 28.6842 126.281 28.6959C126.287 28.7017 126.292 28.706 126.294 28.7086C126.296 28.7099 126.297 28.7108 126.297 28.7113C126.297 28.7116 126.297 28.7117 126.298 28.7118C126.298 28.7118 126.297 28.7116 127 28C127.703 27.2884 127.702 27.288 127.702 27.2876C127.701 27.2873 127.701 27.2868 127.7 27.2862C127.699 27.2851 127.698 27.2835 127.696 27.2816C127.692 27.2777 127.686 27.2721 127.679 27.265C127.664 27.2507 127.643 27.2301 127.615 27.2033C127.56 27.1496 127.478 27.0711 127.37 26.9696C127.155 26.7665 126.837 26.471 126.42 26.0962C125.586 25.3466 124.357 24.2798 122.765 23.0016C119.583 20.4457 114.949 17.0412 109.13 13.6369C97.5001 6.833 81.0858 0 62.0465 0V2Z" fill="#DEDEDC"/>
</svg>
