<svg width="59" height="15" viewBox="0 0 59 15" fill="none" xmlns="http://www.w3.org/2000/svg">
<path d="M56.9664 14.9994C57.5184 15.018 57.9809 14.5855 57.9994 14.0336L58.3016 5.03864C58.3201 4.48667 57.8877 4.02418 57.3357 4.00564C56.7837 3.9871 56.3212 4.41953 56.3027 4.9715L56.0341 12.967L48.0386 12.6984C47.4867 12.6799 47.0242 13.1123 47.0056 13.6643C46.9871 14.2163 47.4195 14.6788 47.9715 14.6973L56.9664 14.9994ZM1 14C1.78032 14.6254 1.78012 14.6256 1.77996 14.6258C1.77996 14.6258 1.77984 14.626 1.77984 14.626C1.77984 14.626 1.77999 14.6258 1.7803 14.6254C1.78093 14.6246 1.78218 14.6231 1.78406 14.6208C1.78782 14.6161 1.79408 14.6084 1.80284 14.5978C1.82036 14.5765 1.84785 14.5433 1.88518 14.4991C1.95983 14.4107 2.07381 14.2781 2.22611 14.1076C2.53075 13.7665 2.9883 13.2744 3.59063 12.6813C4.79608 11.4945 6.57681 9.90838 8.86771 8.32216C13.454 5.14657 20.0409 2 28.1318 2V0C19.5095 0 12.5305 3.35343 7.72919 6.67784C5.32629 8.34162 3.4578 10.0055 2.18747 11.2562C1.55192 11.8819 1.06494 12.4053 0.73453 12.7752C0.569294 12.9602 0.443116 13.1069 0.356996 13.2089C0.313934 13.2599 0.280877 13.2997 0.257951 13.3276C0.246488 13.3416 0.237556 13.3525 0.231172 13.3604C0.22798 13.3643 0.225425 13.3675 0.223508 13.3699C0.22255 13.371 0.221751 13.372 0.221113 13.3728C0.220793 13.3732 0.220434 13.3737 0.220274 13.3739C0.219955 13.3743 0.219676 13.3746 1 14ZM28.1318 2C36.2314 2 43.2617 5.15268 48.298 8.34465C50.8112 9.93749 52.8125 11.5305 54.1832 12.7232C54.8682 13.3191 55.3945 13.8141 55.7474 14.1578C55.9238 14.3296 56.0568 14.4635 56.1444 14.5532C56.1883 14.598 56.2208 14.6317 56.2417 14.6536C56.2522 14.6646 56.2597 14.6726 56.2644 14.6775C56.2667 14.68 56.2683 14.6817 56.2692 14.6826C56.2696 14.683 56.2699 14.6833 56.2699 14.6834C56.2699 14.6834 56.2699 14.6833 56.2699 14.6833C56.2697 14.6832 56.2696 14.683 57 14C57.7304 13.317 57.7302 13.3167 57.7299 13.3164C57.7297 13.3162 57.7293 13.3158 57.729 13.3155C57.7283 13.3147 57.7274 13.3138 57.7264 13.3127C57.7243 13.3105 57.7214 13.3074 57.7179 13.3037C57.7107 13.2961 57.7006 13.2854 57.6875 13.2718C57.6615 13.2445 57.6237 13.2052 57.5744 13.1549C57.4758 13.0541 57.3313 12.9087 57.1428 12.725C56.7656 12.3577 56.2118 11.8371 55.496 11.2143C54.0654 9.96952 51.9833 8.31251 49.3687 6.65535C44.1492 3.34732 36.7454 0 28.1318 0V2Z" fill="#DEDEDC"/>
</svg>
